<?xml version="1.0" standalone="no"?>
<!DOCTYPE svg PUBLIC "-//W3C//DTD SVG 20010904//EN"
 "http://www.w3.org/TR/2001/REC-SVG-20010904/DTD/svg10.dtd">
<svg version="1.0" xmlns="http://www.w3.org/2000/svg"
 width="512.000000pt" height="512.000000pt" viewBox="0 0 512.000000 512.000000"
 preserveAspectRatio="xMidYMid meet">
<metadata>
Created by potrace 1.16, written by Peter Selinger 2001-2019
</metadata>
<g transform="translate(0.000000,512.000000) scale(0.100000,-0.100000)"
fill="#000000" stroke="none">
<path d="M3225 4720 c-122 -19 -295 -80 -364 -129 -37 -27 -41 -26 -41 4 l0
25 -515 0 -515 0 0 -150 0 -150 401 0 c378 0 401 -1 396 -17 -3 -10 -22 -55
-42 -101 -20 -45 -49 -133 -65 -195 l-28 -112 -331 -3 -331 -2 0 -150 0 -150
324 0 324 0 7 -57 c9 -77 80 -292 103 -315 28 -28 35 13 47 279 7 147 13 269
14 271 1 1 87 2 191 2 211 0 324 10 510 45 199 38 374 105 453 174 l34 30 17
-36 c46 -96 121 -156 226 -181 l69 -16 5 -41 c3 -22 10 -141 16 -265 13 -269
14 -272 43 -268 18 2 27 20 54 98 92 277 98 518 18 795 -85 292 -264 489 -525
575 -132 43 -353 61 -495 40z"/>
<path d="M420 3010 l0 -150 1136 0 1135 0 -19 28 c-26 36 -86 158 -101 203
-10 31 -15 35 -37 31 -16 -3 -36 3 -54 17 l-29 21 -1016 0 -1015 0 0 -150z"/>
<path d="M420 2275 l0 -155 1143 0 1142 -1 -170 -87 c-200 -103 -346 -193
-456 -279 l-79 -63 -790 0 -790 0 0 -155 0 -155 690 0 c380 0 690 -2 690 -4 0
-3 -9 -42 -19 -88 -25 -104 -60 -332 -71 -463 -5 -55 -9 -247 -10 -427 l0
-328 1669 0 1668 0 7 163 c12 293 -18 761 -64 988 -45 220 -94 323 -210 440
-133 135 -313 254 -590 393 -80 40 -179 96 -220 125 -49 34 -76 48 -78 39 -2
-7 -7 -22 -12 -33 -5 -11 -77 -308 -160 -660 -83 -352 -154 -648 -158 -659 -5
-10 -20 146 -36 350 -15 203 -30 393 -33 422 l-6 52 -53 0 -54 0 -1 -797 c-1
-439 -3 -789 -6 -778 -3 11 -41 173 -84 359 -44 186 -82 342 -84 346 -2 4 -43
171 -90 371 -274 1160 -241 1032 -265 1019 -19 -10 -20 -7 -20 98 l0 109 -902
6 c-496 4 -1036 7 -1200 7 l-298 0 0 -155z"/>
<path d="M3260 1982 c-58 -53 -104 -101 -102 -107 2 -5 26 -49 54 -97 l50 -88
47 0 48 0 6 192 c3 106 5 194 3 195 -1 1 -49 -42 -106 -95z"/>
</g>
</svg>
